<?xml version="1.0" encoding="utf-8"?>
<svg viewBox="37.172 3.678 455.249 486.978" width="455.249" height="486.978" xmlns="http://www.w3.org/2000/svg" xmlns:bx="https://boxy-svg.com">
  <defs>
    <linearGradient gradientUnits="userSpaceOnUse" x1="264.199" y1="3.7" x2="264.199" y2="490.678" id="gradient-0" gradientTransform="matrix(0.901958, 0.835168, -0.95045, 1.026459, 268.848025, -235.145873)">
      <stop offset="0" style="stop-color: rgb(255, 255, 255); stop-opacity: 0.33;"/>
      <stop offset="1" style="stop-color: rgba(255, 255, 255, 0);"/>
    </linearGradient>
  </defs>
  <path d="M 264.171 3.678 L 489.17 125.423 L 489.17 368.911 L 264.171 490.656 L 39.172 368.912 L 39.172 125.422 Z" style="fill: rgb(100, 116, 139);" bx:shape="n-gon 264.171 247.167 259.807 243.489 6 0 1@522026e0"/>
  <g transform="matrix(1, 0, 0, 1, 23.790539, -5.156986)">
    <path d="M 233.108 224.809 L 212.415 224.809 L 212.415 152.383 L 191.721 152.383 L 191.721 224.809 L 171.028 224.809 L 171.028 152.383 L 150.335 152.383 L 150.335 224.809 C 150.335 246.744 167.51 264.541 189.135 265.886 L 189.135 359.316 L 215.001 359.316 L 215.001 265.886 C 236.626 264.541 253.801 246.744 253.801 224.809 L 253.801 152.383 L 233.108 152.383 L 233.108 224.809 Z" style="fill: rgb(241, 255, 88);"/>
    <path d="M 284.841 193.769 L 284.841 276.543 L 310.708 276.543 L 310.708 359.316 L 336.575 359.316 L 336.575 152.383 C 308.018 152.383 284.841 175.559 284.841 193.769 Z" style="fill: rgb(241, 255, 88);"/>
  </g>
  <text style="fill: rgb(40, 230, 255); font-family: Menlo; font-size: 293.2px; white-space: pre;" transform="matrix(0.849748, 0, 0, 1.01407, 65.129372, -4.957332)" x="328.677" y="353.805">}</text>
  <g transform="matrix(1, 0, 0, 1, 12.012974, 4.236068)">
    <text style="fill: rgb(40, 230, 255); font-family: Menlo; font-size: 293.2px; white-space: pre;" transform="matrix(-0.849748, 0, 0, 1.01407, 457.348755, -9.8701)" x="328.677" y="353.805">}</text>
  </g>
  <path d="M 564.672 137.22 C 564.672 178.574 530.713 216.101 476.044 243.132 C 421.403 270.15 345.878 286.869 262.527 286.869 C 179.176 286.869 103.651 270.15 49.01 243.132 C -5.659 216.101 -39.618 178.574 -39.618 137.22 C -39.618 95.866 -5.659 58.339 49.01 31.308 C 103.651 4.29 179.176 -12.429 262.527 -12.429 C 345.878 -12.429 421.403 4.29 476.044 31.308 C 530.713 58.339 564.672 95.866 564.672 137.22 Z M 475.601 32.204 C 421.067 5.24 345.77 -11.429 262.527 -11.429 C 179.284 -11.429 103.987 5.24 49.453 32.204 C -5.051 59.154 -38.618 96.201 -38.618 137.22 C -38.618 178.239 -5.051 215.286 49.453 242.236 C 103.987 269.2 179.284 285.869 262.527 285.869 C 345.77 285.869 421.067 269.2 475.601 242.236 C 530.105 215.286 563.672 178.239 563.672 137.22 C 563.672 96.201 530.105 59.154 475.601 32.204 Z" style="fill: none;"/>
  <path d="M 264.199 3.7 L 489.198 125.444 L 489.198 368.934 L 264.199 490.678 L 39.2 368.934 L 39.2 125.444 Z" style="fill: url(#gradient-0);" bx:shape="n-gon 264.199 247.189 259.807 243.489 6 0 1@f1d75d38"/>
</svg>