<?xml version="1.0" encoding="utf-8"?>
<svg viewBox="37.172 3.678 455.249 486.978" width="455.249" height="486.978" xmlns="http://www.w3.org/2000/svg" xmlns:bx="https://boxy-svg.com">
  <path d="M 262.171 3.678 L 487.17 125.423 L 487.17 368.911 L 262.171 490.656 L 37.172 368.912 L 37.172 125.422 Z" style="fill: rgb(100, 116, 139);" bx:shape="n-gon 262.171 247.167 259.807 243.489 6 0 1@1a20ac86"/>
  <g transform="matrix(1, 0, 0, 1, 21.790539, -5.156986)">
    <path d="M 233.108 224.809 L 212.415 224.809 L 212.415 152.383 L 191.721 152.383 L 191.721 224.809 L 171.028 224.809 L 171.028 152.383 L 150.335 152.383 L 150.335 224.809 C 150.335 246.744 167.51 264.541 189.135 265.886 L 189.135 359.316 L 215.001 359.316 L 215.001 265.886 C 236.626 264.541 253.801 246.744 253.801 224.809 L 253.801 152.383 L 233.108 152.383 L 233.108 224.809 Z" style="fill: rgb(241, 255, 88);"/>
    <path d="M 284.841 193.769 L 284.841 276.543 L 310.708 276.543 L 310.708 359.316 L 336.575 359.316 L 336.575 152.383 C 308.018 152.383 284.841 175.559 284.841 193.769 Z" style="fill: rgb(241, 255, 88);"/>
  </g>
  <text style="fill: rgb(40, 230, 255); font-family: Menlo; font-size: 293.2px; white-space: pre;" transform="matrix(0.849748, 0, 0, 1.01407, 63.129368, -4.957332)" x="328.677" y="353.805">}</text>
  <g transform="matrix(1, 0, 0, 1, 10.012974, 4.236068)">
    <text style="fill: rgb(40, 230, 255); font-family: Menlo; font-size: 293.2px; white-space: pre;" transform="matrix(-0.849748, 0, 0, 1.01407, 457.348755, -9.8701)" x="328.677" y="353.805">}</text>
  </g>
</svg>