<?xml version="1.0" encoding="utf-8"?>
<svg viewBox="303.092 146.755 200.607 180.08" width="200.607px" height="180.08px" xmlns="http://www.w3.org/2000/svg">
  <path d="M 501.235 214.917 L 501.165 214.917 L 460.762 232.169 L 405.483 255.774 C 405.046 255.957 404.555 255.96 404.117 255.781 L 347.085 232.12 L 305.689 214.945 L 305.626 214.917 L 305.556 214.917 C 304.196 214.919 303.094 216.021 303.092 217.381 L 303.092 324.371 C 303.094 325.731 304.196 326.833 305.556 326.835 L 501.235 326.835 C 502.595 326.833 503.698 325.731 503.699 324.371 L 503.699 217.381 C 503.698 216.021 502.595 214.919 501.235 214.917 Z" fill="#fff"/>
  <path d="M 501.939 215.621 C 501.867 215.621 501.797 215.599 501.738 215.558 L 404.405 147.773 C 403.799 147.352 402.995 147.353 402.389 147.776 L 305.758 215.557 C 305.536 215.713 305.229 215.57 305.205 215.3 C 305.194 215.175 305.251 215.053 305.353 214.981 L 401.985 147.2 C 402.832 146.608 403.958 146.606 404.808 147.195 L 502.14 214.98 C 502.363 215.135 502.334 215.472 502.089 215.588 C 502.042 215.61 501.991 215.621 501.939 215.621 Z" fill="#3f3d56"/>
  <polygon points="311.28 218.024 403.492 149.683 496.405 222.886 408.244 275.15 360.379 264.24 311.28 218.024" fill="#e6e6e6"/>
  <path d="M 364.42 307.431 L 318.864 307.431 C 317.226 307.433 316.2 305.66 317.017 304.241 C 317.397 303.58 318.102 303.173 318.864 303.174 L 364.42 303.174 C 366.058 303.172 367.085 304.944 366.267 306.364 C 365.887 307.025 365.182 307.432 364.42 307.431 Z" fill="#94a3b8"/>
  <path d="M 335.209 298.28 L 318.864 298.28 C 317.226 298.282 316.2 296.51 317.017 295.09 C 317.397 294.43 318.102 294.023 318.864 294.023 L 335.209 294.023 C 336.847 294.021 337.873 295.794 337.056 297.214 C 336.676 297.874 335.971 298.281 335.209 298.28 Z" fill="#94a3b8"/>
  <path d="M 404.789 256.089 C 404.443 256.089 404.1 256.022 403.78 255.891 L 346.909 232.294 L 346.909 158.43 C 346.911 157.071 348.013 155.968 349.372 155.967 L 458.474 155.967 C 459.834 155.968 460.937 157.071 460.938 158.43 L 460.938 232.345 L 460.831 232.391 L 405.83 255.88 C 405.5 256.018 405.146 256.089 404.789 256.089 Z" fill="#fff"/>
  <path d="M 404.789 256.265 C 404.42 256.265 404.054 256.194 403.712 256.054 L 346.733 232.411 L 346.733 158.43 C 346.735 156.973 347.915 155.792 349.372 155.791 L 458.474 155.791 C 459.932 155.792 461.112 156.973 461.114 158.43 L 461.114 232.461 L 405.899 256.041 C 405.547 256.189 405.17 256.265 404.789 256.265 Z M 347.437 231.941 L 403.981 255.403 C 404.508 255.617 405.099 255.614 405.624 255.393 L 460.41 231.997 L 460.41 158.43 C 460.409 157.362 459.543 156.496 458.474 156.495 L 349.372 156.495 C 348.304 156.496 347.438 157.362 347.437 158.43 L 347.437 231.941 Z" fill="#3f3d56"/>
  <path d="M 501.235 214.917 L 501.165 214.917 L 460.762 232.169 L 405.483 255.774 C 405.046 255.957 404.555 255.96 404.117 255.781 L 347.085 232.12 L 305.689 214.945 L 305.626 214.917 L 305.556 214.917 C 304.196 214.919 303.094 216.021 303.092 217.381 L 303.092 324.371 C 303.094 325.731 304.196 326.833 305.556 326.835 L 501.235 326.835 C 502.595 326.833 503.698 325.731 503.699 324.371 L 503.699 217.381 C 503.698 216.021 502.595 214.919 501.235 214.917 Z M 502.995 324.371 C 502.995 325.343 502.207 326.13 501.235 326.131 L 305.556 326.131 C 304.584 326.13 303.796 325.343 303.796 324.371 L 303.796 217.381 C 303.797 216.435 304.544 215.659 305.489 215.621 L 347.085 232.88 L 403.846 256.432 C 404.461 256.682 405.149 256.678 405.761 256.422 L 460.762 232.933 L 501.306 215.621 C 502.249 215.662 502.993 216.437 502.995 217.381 L 502.995 324.371 Z" fill="#3f3d56"/>
  <g transform="matrix(3.423914, 0, 0, 3.423914, 362.836517, 164.941025)" style="">
    <path d="M12 2C6.48 2 2 6.48 2 12s4.48 10 10 10 10-4.48 10-10S17.52 2 12 2zm-2 15l-5-5 1.41-1.41L10 14.17l7.59-7.59L19 8l-9 9z" style="fill: rgb(34, 197, 94);"/>
  </g>
</svg>